<?xml version="1.0" encoding="UTF-8"?>
<svg width="24px" height="20px" viewBox="0 0 24 20" version="1.1" xmlns="http://www.w3.org/2000/svg" xmlns:xlink="http://www.w3.org/1999/xlink">
    <!-- Generator: Sketch 57.1 (83088) - https://sketch.com -->
    <title>left-arrow</title>
    <desc>Created with Sketch.</desc>
    <g id="Page-1" stroke="none" stroke-width="1" fill="none" fill-rule="evenodd">
        <g id="Desktop-HD" transform="translate(-111.000000, -2684.000000)" fill="#FFFFFF" fill-rule="nonzero">
            <g id="3" transform="translate(-73.000000, 2115.000000)">
                <g id="Group-2" transform="translate(0.000000, 381.000000)">
                    <g id="left-arrow" transform="translate(184.000000, 188.000000)">
                        <path d="M22.6509271,8.111743 L22.6883905,8.11996515 L6.62868671,8.11996515 L11.677271,3.04356763 C11.9244904,2.79572839 12.0601002,2.45999041 12.0601002,2.10761234 C12.0601002,1.75523428 11.9244904,1.42184548 11.677271,1.17341895 L10.8917102,0.38487515 C10.6446858,0.137035913 10.3155152,0 9.96449086,0 C9.61327143,0 9.28390564,0.136057085 9.03688131,0.383896323 L0.382639291,9.06590449 C0.134639345,9.31472255 -0.000970381961,9.6461537 0,9.99872752 C-0.000970381961,10.353259 0.134639345,10.6848859 0.382639291,10.9333125 L9.03688131,19.6161037 C9.28390564,19.8637471 9.6130763,20 9.96449086,20 C10.3155152,20 10.6446858,19.8635514 10.8917102,19.6161037 L11.677271,18.8275599 C11.9244904,18.5801122 12.0601002,18.2496599 12.0601002,17.8972818 C12.0601002,17.5450995 11.9244904,17.2320703 11.677271,16.9844268 L6.57171111,11.8796433 L22.6688783,11.8796433 C23.3921953,11.8796433 24,11.2541723 24,10.5288607 L24,9.41358417 C24,8.68827266 23.374244,8.111743 22.6509271,8.111743 Z" id="Path"></path>
                    </g>
                </g>
            </g>
        </g>
    </g>
</svg>