<?xml version="1.0" encoding="utf-8"?>
<!-- Generator: Adobe Illustrator 22.0.0, SVG Export Plug-In . SVG Version: 6.00 Build 0)  -->
<svg version="1.1" id="Слой_1" xmlns="http://www.w3.org/2000/svg" xmlns:xlink="http://www.w3.org/1999/xlink" x="0px" y="0px"
	 viewBox="0 0 118.3 29.1" style="enable-background:new 0 0 118.3 29.1;" xml:space="preserve">
<style type="text/css">
	.st0{fill:#FFFFFF;}
</style>
<title>LOGO</title>
<desc>Created with Sketch.</desc>
<path class="st0" d="M0,0.6h7.9v21.7h13.4v6.3H0V0.6z"/>
<path class="st0" d="M30.1,27.2c-2.4-1.3-4.2-3-5.6-5.2c-1.3-2.2-2-4.7-2-7.5s0.7-5.3,2-7.5c1.3-2.2,3.2-3.9,5.6-5.2s5-1.9,8-1.9
	s5.6,0.6,8,1.9s4.2,3,5.6,5.2c1.3,2.2,2,4.7,2,7.5s-0.7,5.3-2,7.5c-1.3,2.2-3.2,3.9-5.6,5.2c-2.4,1.3-5,1.9-8,1.9
	S32.5,28.5,30.1,27.2z M41.9,21.6c1.1-0.7,2.1-1.6,2.7-2.8c0.7-1.2,1-2.6,1-4.2c0-1.6-0.3-3-1-4.2c-0.7-1.2-1.6-2.2-2.7-2.8
	c-1.1-0.7-2.4-1-3.8-1c-1.4,0-2.7,0.3-3.8,1c-1.1,0.7-2.1,1.6-2.7,2.8s-1,2.6-1,4.2c0,1.6,0.3,3,1,4.2c0.7,1.2,1.6,2.2,2.7,2.8
	c1.1,0.7,2.4,1,3.8,1C39.5,22.6,40.8,22.2,41.9,21.6z"/>
<path class="st0" d="M76.6,14h7v11.6c-1.6,1.1-3.4,2-5.5,2.6c-2.1,0.6-4.2,0.9-6.2,0.9c-2.9,0-5.6-0.6-7.9-1.9
	c-2.3-1.2-4.2-3-5.5-5.2c-1.3-2.2-2-4.7-2-7.5s0.7-5.3,2-7.5c1.3-2.2,3.2-3.9,5.6-5.2C66.3,0.6,69,0,72,0c2.6,0,5,0.4,7,1.3
	s3.8,2.1,5.2,3.8l-5,4.6c-1.9-2.1-4.2-3.1-6.8-3.1c-2.4,0-4.3,0.7-5.8,2.2c-1.5,1.5-2.2,3.4-2.2,5.8c0,1.5,0.3,2.9,1,4.1
	c0.7,1.2,1.6,2.2,2.8,2.8c1.2,0.7,2.6,1,4.1,1c1.5,0,2.9-0.3,4.3-0.9V14z"/>
<path class="st0" d="M94.7,27.2c-2.4-1.3-4.2-3-5.6-5.2c-1.3-2.2-2-4.7-2-7.5s0.7-5.3,2-7.5c1.3-2.2,3.2-3.9,5.6-5.2
	c2.4-1.3,5-1.9,8-1.9s5.6,0.6,8,1.9c2.4,1.3,4.2,3,5.6,5.2c1.3,2.2,2,4.7,2,7.5s-0.7,5.3-2,7.5c-1.3,2.2-3.2,3.9-5.6,5.2
	c-2.4,1.3-5,1.9-8,1.9S97.1,28.5,94.7,27.2z M106.6,21.6c1.1-0.7,2.1-1.6,2.7-2.8c0.7-1.2,1-2.6,1-4.2c0-1.6-0.3-3-1-4.2
	c-0.7-1.2-1.6-2.2-2.7-2.8c-1.1-0.7-2.4-1-3.8-1s-2.7,0.3-3.8,1c-1.1,0.7-2.1,1.6-2.7,2.8c-0.7,1.2-1,2.6-1,4.2c0,1.6,0.3,3,1,4.2
	c0.7,1.2,1.6,2.2,2.7,2.8c1.1,0.7,2.4,1,3.8,1S105.4,22.2,106.6,21.6z"/>
</svg>
