<?xml version="1.0" encoding="utf-8"?>
<!-- Generator: Adobe Illustrator 22.0.0, SVG Export Plug-In . SVG Version: 6.00 Build 0)  -->
<svg version="1.1" id="Слой_1" xmlns="http://www.w3.org/2000/svg" xmlns:xlink="http://www.w3.org/1999/xlink" x="0px" y="0px"
	 viewBox="0 0 291.8 288.3" style="enable-background:new 0 0 291.8 288.3;" xml:space="preserve">
<g>
	<path d="M146.3,0c0.2,0.2,0.5,0.4,0.7,0.5c54,22.9,100.8,56,139.9,99.8c1.5,1.6,2.9,3.3,4.3,5c0.3,0.4,0.6,1,0.5,1.5
		c-0.3,3.9-0.5,7.8-1,11.7c-1.5,10.5-2.8,20.9-4.7,31.3c-4.2,23.1-10.8,45.5-19.4,67.3c-8.2,20.7-18,40.7-29.4,59.8
		c-0.5,0.8-1,1.2-1.9,1.4c-12.6,2.8-25.2,5.2-38,6.9c-12.2,1.6-24.4,2.8-36.7,3c-9.9,0.2-19.8,0.2-29.7,0
		c-11.5-0.3-22.9-1.4-34.3-2.8c-13.2-1.6-26.2-4-39.2-7c-1.1-0.2-1.8-0.7-2.4-1.7c-22.3-37.2-38-76.9-47.3-119.2
		c-3-13.4-5.3-26.9-6.7-40.6c-0.3-3.2-0.7-6.4-1.1-9.6c0-0.4,0-0.7,0-1.1c0.2-0.3,0.4-0.5,0.7-0.8c19-22,40.2-41.6,63.5-58.9
		c25-18.5,51.9-33.7,80.6-45.8c0.4-0.2,0.7-0.4,1.1-0.7C146,0,146.2,0,146.3,0z M145.4,277.6c14.1,0,27.1-0.7,40.1-2
		c14.4-1.5,28.8-3.8,42.9-6.9c0.8-0.2,1.2-0.5,1.6-1.1c9.5-16.3,17.9-33.3,25-50.8c13.7-33.9,22.2-69,25.7-105.4
		c0.1-0.9-0.1-1.6-0.7-2.3c-37.2-42-81.5-74.1-132.8-96.7c-0.9-0.4-1.6-0.3-2.4,0c-39.1,17-74.2,40.1-105.6,68.9
		c-9.4,8.6-18.4,17.8-26.9,27.3c-0.6,0.7-0.8,1.3-0.7,2.2c0.4,3,0.6,6.1,1,9.1c1.6,13.6,4,27.1,7.1,40.4
		c8.7,37.9,22.9,73.6,42.5,107.1c0.4,0.7,0.9,1,1.7,1.2c12.7,2.8,25.6,5,38.5,6.5C117,276.7,131.7,277.6,145.4,277.6z"/>
	<path d="M30.9,115.7c3.7,0.6,7.5,1.3,11.2,1.9c9.6,1.5,19.3,3,28.9,4.4c8.2,1.1,16.4,2.2,24.7,3c9.8,1,19.6,1.7,29.5,2.3
		c10.7,0.7,21.4,0.9,32,0.4c9.4-0.5,18.9-0.9,28.3-1.7c11-1,22.1-2.2,33.1-3.7c11.5-1.5,22.9-3.4,34.3-5.2c2.9-0.4,5.8-1,8.8-1.2
		c-38.4,16.7-76.9,33.4-115.5,50.2c27.4,33.6,54.7,67.1,82,100.6c-0.1,0.1-0.1,0.2-0.2,0.2c-0.4-0.2-0.7-0.5-1.1-0.7
		c-26.5-18-53-36-79.5-54.1c-1-0.7-1.6-0.6-2.5,0c-26.4,18-52.7,35.9-79.1,53.8c-0.5,0.3-0.9,0.6-1.4,0.9c-0.1-0.1-0.1-0.1-0.2-0.2
		c27.3-33.5,54.6-67,82-100.6c-38.6-16.8-77-33.5-115.4-50.2C30.8,115.9,30.8,115.8,30.9,115.7z"/>
	<path d="M149.5,34.8c-0.8,1-1.4,2-2.2,3c2.5,0.7,3.7,2.7,5,4.6c0.2,0.3,0.4,0.6,0.7,0.9c0.7,0.9,1.5,1.4,2.7,0.5
		c-0.1,1.6-1.4,1.9-2.1,2.7c0.5,0.9,1,1.8,1.4,2.7c0.2,0.6,0.3,1.2,0.3,1.9c0,1.4,0.7,2.5,1.9,3.4c-10.4,6.5-13.5,16.7-14.4,28.1
		c-0.4-0.2-0.9-0.4-1.3-0.6c-5.8-3.3-7.9-10.5-5-16.6c1.3-2.8,2.6-5.7,3.7-8.6c0.9-2.4-0.8-4.7-3.4-5.1c-0.2,0.4-0.4,0.8-0.6,1.1
		c-0.8,1.5-2,2.1-3.7,2c-0.9-0.1-1.4,0.2-1.8,0.9c-0.9,1.4-1.8,2.7-2.7,4.1c-0.2,0.3-0.7,0.6-1,0.8c-0.2,0.1-0.7,0.1-0.8,0
		c-0.2-0.2-0.1-0.6-0.1-0.9c0-0.6,0.1-1.3,0.2-1.9c-0.1,0-0.3-0.1-0.4-0.1c-0.5,0.6-0.9,1.1-1.4,1.7c-0.6,0.7-1.1,0.7-1.8,0
		c-1.9-2.1-2-3.3-0.4-5.7c0.4-0.6,1-1.1,1.4-1.7c0.5-0.9,1.2-1.9,1.4-3c0.3-1.8,1.3-3.3,2.3-4.8c0.4-0.7,0.7-1.5,0.9-2.3
		c0.4-1.6,1-3.1,2.8-3.8c1.9-0.7,3.7-1.6,5.5-2.3c0.8-0.3,1.7-0.5,2.5-0.4c1.7,0.1,3.5,0.5,5.2,0.4
		C145.9,35.6,147.6,35.1,149.5,34.8z M128.5,49.5c1.3-0.1,2.1-0.6,2.6-1.5c0.4-0.6,0.3-1.2-0.4-1.6c-0.7-0.3-1.5-0.3-1.7,0.6
		C128.7,47.7,128.7,48.6,128.5,49.5z"/>
	<path d="M176,102.4c-1.2,2.2-2.5,4.3-3.7,6.5c-0.4,0.6-0.8,0.9-1.5,0.8c-0.3,0-0.6-0.1-0.9,0c-2.4,0.5-3.8-0.6-4.8-2.8
		c-0.7-1.6-1.7-3-2.5-4.5c-0.1,0-0.2,0-0.3,0.1c0,4.8,0,9.6,0,14.5c-2.5,0-4.9,0-7.3,0c-0.2,0-0.4-0.3-0.5-0.6c-0.1-0.1,0-0.4,0-0.6
		c0-9.8,0-19.6,0-29.4c0-0.3,0-0.7,0.1-1.1c2.5,0,4.9,0,7.3,0c0.3,0,0.6,0.5,0.8,0.8c2,3.9,4,7.8,6,11.7c0.2,0.4,0.4,0.7,0.7,1.3
		c0.3-0.5,0.5-0.8,0.6-1.1c2-4,4.1-7.9,6.1-11.9c0.3-0.6,0.6-0.8,1.3-0.8c2,0,3.9,0,5.9,0c0.6,0,1,0.1,1,0.8c0,10.2,0,20.3,0,30.5
		c0,0.1,0,0.1-0.1,0.4c-0.7,0-1.5,0-2.2,0c-1.5,0-2.9,0-4.4,0c-0.9,0-1.2-0.2-1.1-1.1c0.1-4.1,0-8.3,0-12.4c0-0.4,0-0.7,0-1.1
		C176.2,102.4,176.1,102.4,176,102.4z"/>
	<path d="M228.4,85.3c0,10.6,0,21.1,0,31.7c-1.4,0-2.7,0-4,0c-0.9,0-1.8,0-2.7,0c-0.9,0.1-1.2-0.2-1.1-1.1c0-4.8,0-9.6,0-14.4
		c0-0.4,0-0.7-0.3-1.2c-0.2,0.3-0.4,0.6-0.6,1c-2.9,4.9-5.8,9.8-8.6,14.7c-0.4,0.7-0.9,1.1-1.8,1c-1.4-0.1-2.9-0.1-4.4,0
		c-1.1,0.1-1.4-0.2-1.4-1.3c0-8,0-15.9,0-23.9c0-2.1,0-4.2,0-6.4c2.7,0,5.2,0,7.8,0c0,5.6,0,11.1,0,16.6c0.1,0,0.2,0,0.3,0.1
		c0.2-0.3,0.4-0.7,0.6-1c2.9-4.9,5.8-9.9,8.7-14.8c0.4-0.6,0.8-1,1.6-0.9C224.5,85.3,226.4,85.3,228.4,85.3z"/>
	<path d="M78.9,85.4c0,4.1,0,8,0,12c2.8,0,5.4,0,8.2,0c0-4,0-7.9,0-12c2.7,0,5.2,0,7.7,0c0,10.5,0,21,0,31.7c-1.7,0-3.4,0-5.1,0
		c-2.6,0-2.6,0-2.6-2.6c0-3.2,0-6.5,0-9.8c-2.8,0-5.5,0-8.3,0c0,4.1,0,8.2,0,12.4c-1.9,0-3.6,0-5.3,0c-2.5,0-2.5,0-2.5-2.4
		c0-9.3,0-18.5,0-27.8c0-0.4,0-0.9,0-1.4C73.7,85.4,76.2,85.4,78.9,85.4z"/>
	<path d="M112.2,107.2c2.5,0,4.8,0,7.2,0c0.3,0,0.7,0.4,0.8,0.7c1.2,2.3,2.9,3.1,5.3,2.5c1.6-0.4,2.6-1.7,2.5-3.4
		c-0.1-1.6-1.1-2.7-2.7-2.9c-1.7-0.2-3.4-0.2-5.2-0.3c0-2,0-4,0-6.2c1.4,0,2.8,0,4.2,0c1.7,0,2.9-0.9,3.2-2.2c0.5-2.2-1.3-4-3.9-3.7
		c-1.6,0.2-2.8,1.1-3.4,2.6c-0.3,0.7-0.7,0.9-1.4,0.9c-2.2-0.1-4.3,0-6.6,0c0-0.5,0-0.8,0.1-1.2c1.1-4.8,4.6-8.1,9.5-8.9
		c2.8-0.4,5.4-0.1,8,0.9c4.3,1.7,6.5,6.1,5.2,10.2c-0.6,1.8-1.8,3.2-3.3,4.3c0.2,0.2,0.3,0.3,0.5,0.4c4.9,3,4.3,9.7,1.4,12.7
		c-3.6,3.6-8,4.3-12.7,3.3c-4.5-0.9-7.3-3.8-8.5-8.2C112.4,108.2,112.3,107.8,112.2,107.2z"/>
	<path d="M171,42.2c-0.3-0.7-0.5-1.2-0.8-1.8c-4.9-11-16.7-17.9-28.4-16.4c-12.6,1.6-22.3,10.6-24.5,22.7c-2.2,12.2,3.9,24.4,15,30
		c0.9,0.5,1.6,1,2,2.1c0.4,0.9,1,1.7,1.7,2.8c-1.1-0.4-2-0.6-2.8-0.9c-11.1-4.8-17.8-13.1-19.3-25.1c-2-16.6,8.7-31.1,25.1-34.4
		c14-2.8,28.5,5,34.1,18.1c0.3,0.8,0.3,1.3-0.5,1.7C172.2,41.3,171.6,41.8,171,42.2z"/>
	<path d="M187.9,58.3c-1.8,5.6-4.6,10.2-8.9,13.8c-2.7,2.3-6,3.4-9.5,3.9c-4.6,0.7-9.3,1.3-13.9,2.3c-2.4,0.5-4.7,1.6-7,2.5
		c-0.4,0.2-0.9,0.3-1.4,0.3c0.3-0.4,0.6-0.7,0.9-1.1c4.2-4.9,9.6-7.9,15.9-9.3c2.9-0.6,5.7-1.3,8.6-2c2.2-0.5,4.2-1.4,5.9-2.8
		c2.7-2.1,5.3-4.2,8-6.3C186.9,59.2,187.3,58.8,187.9,58.3z"/>
	<path d="M147,78.4c1.8-2.6,3.5-5.3,5.4-7.8c2.2-2.9,5.4-4.6,8.4-6.3c3.2-1.9,6.4-3.6,9.7-5.2c6.9-3.1,11.4-8.5,14.9-15
		c0.2-0.4,0.4-0.8,0.6-1.2c0,0,0.1,0,0.3-0.2c-0.6,2.4-1.1,4.7-1.8,7c-0.7,2.2-1.5,4.3-2.5,6.4c-1.9,4.4-5.3,7.1-9.8,8.5
		c-4.9,1.6-9.9,3-14.5,5.6c-3,1.7-5.9,3.6-8.3,6.2c-0.7,0.8-1.4,1.5-2.1,2.3C147.3,78.6,147.2,78.5,147,78.4z"/>
</g>
</svg>
