<?xml version="1.0" encoding="utf-8"?><svg viewBox="0 0 118.3 29.1" xmlns="http://www.w3.org/2000/svg" xmlns:xlink="http://www.w3.org/1999/xlink"><style>:root>svg{display:none}:root>svg:target{display:block}</style><svg version="1.1" id="logo" x="0" y="0" viewBox="0 0 118.3 29.1" xml:space="preserve" xmlns="http://www.w3.org/2000/svg"><style>.ast0{fill:#fff}</style><path class="ast0" d="M0 .6h7.9v21.7h13.4v6.3H0V.6zM30.1 27.2c-2.4-1.3-4.2-3-5.6-5.2-1.3-2.2-2-4.7-2-7.5s.7-5.3 2-7.5 3.2-3.9 5.6-5.2 5-1.9 8-1.9 5.6.6 8 1.9 4.2 3 5.6 5.2c1.3 2.2 2 4.7 2 7.5s-.7 5.3-2 7.5-3.2 3.9-5.6 5.2c-2.4 1.3-5 1.9-8 1.9s-5.6-.6-8-1.9zm11.8-5.6c1.1-.7 2.1-1.6 2.7-2.8.7-1.2 1-2.6 1-4.2s-.3-3-1-4.2c-.7-1.2-1.6-2.2-2.7-2.8-1.1-.7-2.4-1-3.8-1s-2.7.3-3.8 1c-1.1.7-2.1 1.6-2.7 2.8s-1 2.6-1 4.2.3 3 1 4.2c.7 1.2 1.6 2.2 2.7 2.8 1.1.7 2.4 1 3.8 1s2.7-.4 3.8-1zM76.6 14h7v11.6c-1.6 1.1-3.4 2-5.5 2.6-2.1.6-4.2.9-6.2.9-2.9 0-5.6-.6-7.9-1.9-2.3-1.2-4.2-3-5.5-5.2-1.3-2.2-2-4.7-2-7.5s.7-5.3 2-7.5 3.2-3.9 5.6-5.2C66.3.6 69 0 72 0c2.6 0 5 .4 7 1.3s3.8 2.1 5.2 3.8l-5 4.6c-1.9-2.1-4.2-3.1-6.8-3.1-2.4 0-4.3.7-5.8 2.2-1.5 1.5-2.2 3.4-2.2 5.8 0 1.5.3 2.9 1 4.1.7 1.2 1.6 2.2 2.8 2.8 1.2.7 2.6 1 4.1 1 1.5 0 2.9-.3 4.3-.9V14zM94.7 27.2c-2.4-1.3-4.2-3-5.6-5.2-1.3-2.2-2-4.7-2-7.5s.7-5.3 2-7.5 3.2-3.9 5.6-5.2c2.4-1.3 5-1.9 8-1.9s5.6.6 8 1.9c2.4 1.3 4.2 3 5.6 5.2 1.3 2.2 2 4.7 2 7.5s-.7 5.3-2 7.5-3.2 3.9-5.6 5.2c-2.4 1.3-5 1.9-8 1.9s-5.6-.6-8-1.9zm11.9-5.6c1.1-.7 2.1-1.6 2.7-2.8.7-1.2 1-2.6 1-4.2s-.3-3-1-4.2c-.7-1.2-1.6-2.2-2.7-2.8-1.1-.7-2.4-1-3.8-1s-2.7.3-3.8 1c-1.1.7-2.1 1.6-2.7 2.8-.7 1.2-1 2.6-1 4.2s.3 3 1 4.2C97 20 97.9 21 99 21.6c1.1.7 2.4 1 3.8 1s2.6-.4 3.8-1z"/></svg></svg>